# xmcd CD database file
#
# Track frame offsets:
#	150
#	23843
#	50474
#	69440
#	92365
#	116059
#	142608
#	166870
#	194022
#	242604
#	266175
#	286545
#	308311
#	329634
#
# Disc length: 4655 seconds
#
# Revision: 0
# Processed by: cddbd v1.5.1PL2 Copyright (c) Steve Scherf et al.
# Submitted via: Feurio! 1.68 - http://www.feurio.com
#
DISCID=b7122d0e
DTITLE=Mayall, John  and Trout, Walter - Streamliner
DYEAR=1900
DGENRE=Blues
TTITLE0=One Life To Live
TTITLE1=Dream About The Blues
TTITLE2=Ridin'on the l and n
TTITLE3=Cold Blooded Woman
TTITLE4=One Life To Live
TTITLE5=Tears Came Rollin' Down
TTITLE6=Chicago Line
TTITLE7=Life In The Jungle
TTITLE8=Room to Move
TTITLE9=Gimme One More Day
TTITLE10=The Last Time
TTITLE11=The Dirty Dozen
TTITLE12=Fascinatin' Lover
TTITLE13=Streamliner
EXTD=
EXTT0=
EXTT1=
EXTT2=
EXTT3=
EXTT4=
EXTT5=
EXTT6=
EXTT7=
EXTT8=
EXTT9=
EXTT10=
EXTT11=
EXTT12=
EXTT13=
PLAYORDER=
